<svg width="176" height="21" viewBox="0 0 176 21" fill="none" xmlns="http://www.w3.org/2000/svg">
<path d="M0.699063 20.58C0.493729 20.58 0.325729 20.5147 0.195063 20.384C0.0643959 20.2533 -0.000937492 20.0853 -0.000937492 19.88V1.68C-0.000937492 1.47467 0.0643959 1.30667 0.195063 1.176C0.325729 1.04533 0.493729 0.98 0.699063 0.98H9.23906C10.8444 0.98 12.1604 1.204 13.1871 1.652C14.2137 2.1 14.9697 2.744 15.4551 3.584C15.9591 4.40533 16.2111 5.38533 16.2111 6.524C16.2111 7.196 16.0804 7.79333 15.8191 8.316C15.5764 8.82 15.2684 9.24 14.8951 9.576C14.5404 9.912 14.2044 10.1547 13.8871 10.304C14.5964 10.64 15.2217 11.1907 15.7631 11.956C16.3231 12.7213 16.6031 13.6173 16.6031 14.644C16.6031 15.876 16.3231 16.94 15.7631 17.836C15.2217 18.7133 14.4191 19.3947 13.3551 19.88C12.3097 20.3467 11.0217 20.58 9.49106 20.58H0.699063ZM5.01106 16.94H8.93106C9.73373 16.94 10.3404 16.7067 10.7511 16.24C11.1617 15.7733 11.3671 15.2413 11.3671 14.644C11.3671 13.9907 11.1524 13.44 10.7231 12.992C10.3124 12.544 9.71506 12.32 8.93106 12.32H5.01106V16.94ZM5.01106 8.764H8.67906C9.4444 8.764 10.0137 8.568 10.3871 8.176C10.7791 7.784 10.9751 7.28 10.9751 6.664C10.9751 6.06667 10.7791 5.58133 10.3871 5.208C10.0137 4.816 9.4444 4.62 8.67906 4.62H5.01106V8.764ZM19.9504 20.58C19.745 20.58 19.577 20.5147 19.4464 20.384C19.3157 20.2533 19.2504 20.0853 19.2504 19.88V6.72C19.2504 6.53333 19.3157 6.37467 19.4464 6.244C19.577 6.09467 19.745 6.02 19.9504 6.02H23.1704C23.3757 6.02 23.5437 6.09467 23.6744 6.244C23.805 6.37467 23.8704 6.53333 23.8704 6.72V7.84C24.3744 7.26133 24.9717 6.81333 25.6624 6.496C26.3717 6.17867 27.165 6.02 28.0424 6.02H29.2744C29.461 6.02 29.6197 6.08533 29.7504 6.216C29.8997 6.34667 29.9744 6.51467 29.9744 6.72V9.604C29.9744 9.79067 29.8997 9.95867 29.7504 10.108C29.6197 10.2387 29.461 10.304 29.2744 10.304H26.5584C25.793 10.304 25.1957 10.5187 24.7664 10.948C24.3557 11.3587 24.1504 11.9467 24.1504 12.712V19.88C24.1504 20.0853 24.0757 20.2533 23.9264 20.384C23.7957 20.5147 23.6277 20.58 23.4224 20.58H19.9504ZM35.9315 20.86C34.9235 20.86 34.0182 20.6733 33.2155 20.3C32.4315 19.908 31.8062 19.3853 31.3395 18.732C30.8729 18.0787 30.6395 17.3413 30.6395 16.52C30.6395 15.1947 31.1809 14.1493 32.2635 13.384C33.3462 12.6 34.7835 12.068 36.5755 11.788L40.0755 11.256V10.864C40.0755 10.192 39.9355 9.67867 39.6555 9.324C39.3755 8.96933 38.8622 8.792 38.1155 8.792C37.5929 8.792 37.1635 8.89467 36.8275 9.1C36.5102 9.30533 36.2582 9.58533 36.0715 9.94C35.9035 10.1827 35.6702 10.304 35.3715 10.304H32.2355C32.0302 10.304 31.8715 10.248 31.7595 10.136C31.6475 10.0053 31.6009 9.856 31.6195 9.688C31.6195 9.352 31.7409 8.96933 31.9835 8.54C32.2449 8.092 32.6369 7.65333 33.1595 7.224C33.6822 6.79467 34.3542 6.44 35.1755 6.16C35.9969 5.88 36.9862 5.74 38.1435 5.74C39.3569 5.74 40.3929 5.88 41.2515 6.16C42.1102 6.44 42.8009 6.832 43.3235 7.336C43.8649 7.84 44.2662 8.43733 44.5275 9.128C44.7889 9.8 44.9195 10.5467 44.9195 11.368V19.88C44.9195 20.0853 44.8449 20.2533 44.6955 20.384C44.5649 20.5147 44.4062 20.58 44.2195 20.58H40.9715C40.7662 20.58 40.5982 20.5147 40.4675 20.384C40.3369 20.2533 40.2715 20.0853 40.2715 19.88V18.9C40.0289 19.2547 39.7022 19.5813 39.2915 19.88C38.8809 20.1787 38.3955 20.412 37.8355 20.58C37.2942 20.7667 36.6595 20.86 35.9315 20.86ZM37.2475 17.668C37.7889 17.668 38.2742 17.556 38.7035 17.332C39.1515 17.0893 39.4969 16.7253 39.7395 16.24C40.0009 15.736 40.1315 15.1107 40.1315 14.364V13.972L37.7515 14.392C36.8742 14.5413 36.2302 14.7747 35.8195 15.092C35.4275 15.3907 35.2315 15.7453 35.2315 16.156C35.2315 16.4733 35.3249 16.744 35.5115 16.968C35.6982 17.192 35.9409 17.3693 36.2395 17.5C36.5382 17.612 36.8742 17.668 37.2475 17.668ZM48.6236 20.58C48.4183 20.58 48.2503 20.5147 48.1196 20.384C47.9889 20.2533 47.9236 20.0853 47.9236 19.88V6.72C47.9236 6.51467 47.9889 6.34667 48.1196 6.216C48.2503 6.08533 48.4183 6.02 48.6236 6.02H51.9276C52.1143 6.02 52.2729 6.08533 52.4036 6.216C52.5529 6.34667 52.6276 6.51467 52.6276 6.72V19.88C52.6276 20.0853 52.5529 20.2533 52.4036 20.384C52.2729 20.5147 52.1143 20.58 51.9276 20.58H48.6236ZM48.5956 3.92C48.3903 3.92 48.2223 3.85467 48.0916 3.724C47.9609 3.59333 47.8956 3.42533 47.8956 3.22V0.728C47.8956 0.522667 47.9609 0.354667 48.0916 0.224C48.2223 0.0746677 48.3903 1.43051e-06 48.5956 1.43051e-06H51.9276C52.1329 1.43051e-06 52.3009 0.0746677 52.4316 0.224C52.5809 0.354667 52.6556 0.522667 52.6556 0.728V3.22C52.6556 3.42533 52.5809 3.59333 52.4316 3.724C52.3009 3.85467 52.1329 3.92 51.9276 3.92H48.5956ZM57.3274 20.58C57.1221 20.58 56.9541 20.5147 56.8234 20.384C56.6928 20.2533 56.6274 20.0853 56.6274 19.88V6.72C56.6274 6.51467 56.6928 6.34667 56.8234 6.216C56.9541 6.08533 57.1221 6.02 57.3274 6.02H60.5474C60.7528 6.02 60.9208 6.08533 61.0514 6.216C61.1821 6.34667 61.2474 6.51467 61.2474 6.72V7.784C61.7328 7.20533 62.3674 6.72 63.1514 6.328C63.9354 5.936 64.8594 5.74 65.9234 5.74C67.0061 5.74 67.9581 5.98267 68.7794 6.468C69.6194 6.95333 70.2728 7.672 70.7394 8.624C71.2248 9.55733 71.4674 10.7053 71.4674 12.068V19.88C71.4674 20.0853 71.3928 20.2533 71.2434 20.384C71.1128 20.5147 70.9541 20.58 70.7674 20.58H67.2394C67.0528 20.58 66.8848 20.5147 66.7354 20.384C66.6048 20.2533 66.5394 20.0853 66.5394 19.88V12.236C66.5394 11.3587 66.3248 10.6867 65.8954 10.22C65.4848 9.73467 64.8688 9.492 64.0474 9.492C63.2821 9.492 62.6661 9.73467 62.1994 10.22C61.7514 10.6867 61.5274 11.3587 61.5274 12.236V19.88C61.5274 20.0853 61.4528 20.2533 61.3034 20.384C61.1728 20.5147 61.0141 20.58 60.8274 20.58H57.3274ZM78.2506 20.58C77.9706 20.58 77.7653 20.5147 77.6346 20.384C77.504 20.2533 77.4013 20.0853 77.3266 19.88L73.2946 6.916C73.2573 6.82267 73.2386 6.72933 73.2386 6.636C73.2386 6.468 73.304 6.328 73.4346 6.216C73.5653 6.08533 73.7146 6.02 73.8826 6.02H76.7666C77.0093 6.02 77.196 6.08533 77.3266 6.216C77.476 6.34667 77.5693 6.47733 77.6066 6.608L79.9586 14.616L82.4786 6.636C82.516 6.50534 82.6 6.37467 82.7306 6.244C82.88 6.09467 83.0853 6.02 83.3466 6.02H85.1946C85.456 6.02 85.652 6.09467 85.7826 6.244C85.932 6.37467 86.0253 6.50534 86.0626 6.636L88.5826 14.616L90.9346 6.608C90.972 6.47733 91.056 6.34667 91.1866 6.216C91.336 6.08533 91.532 6.02 91.7746 6.02H94.6586C94.8266 6.02 94.9666 6.08533 95.0786 6.216C95.2093 6.328 95.2746 6.468 95.2746 6.636C95.2746 6.72933 95.2653 6.82267 95.2466 6.916L91.2146 19.88C91.1586 20.0853 91.056 20.2533 90.9066 20.384C90.776 20.5147 90.5706 20.58 90.2906 20.58H87.7706C87.5093 20.58 87.304 20.5147 87.1546 20.384C87.0053 20.2533 86.9026 20.0853 86.8466 19.88L84.2706 12.208L81.6946 19.88C81.6386 20.0853 81.536 20.2533 81.3866 20.384C81.2373 20.5147 81.032 20.58 80.7706 20.58H78.2506ZM101.372 20.86C100.364 20.86 99.4585 20.6733 98.6558 20.3C97.8718 19.908 97.2465 19.3853 96.7798 18.732C96.3132 18.0787 96.0798 17.3413 96.0798 16.52C96.0798 15.1947 96.6212 14.1493 97.7038 13.384C98.7865 12.6 100.224 12.068 102.016 11.788L105.516 11.256V10.864C105.516 10.192 105.376 9.67867 105.096 9.324C104.816 8.96933 104.302 8.792 103.556 8.792C103.033 8.792 102.604 8.89467 102.268 9.1C101.95 9.30533 101.698 9.58533 101.512 9.94C101.344 10.1827 101.11 10.304 100.812 10.304H97.6758C97.4705 10.304 97.3118 10.248 97.1998 10.136C97.0878 10.0053 97.0412 9.856 97.0598 9.688C97.0598 9.352 97.1812 8.96933 97.4238 8.54C97.6852 8.092 98.0772 7.65333 98.5998 7.224C99.1225 6.79467 99.7945 6.44 100.616 6.16C101.437 5.88 102.426 5.74 103.584 5.74C104.797 5.74 105.833 5.88 106.692 6.16C107.55 6.44 108.241 6.832 108.764 7.336C109.305 7.84 109.706 8.43733 109.968 9.128C110.229 9.8 110.36 10.5467 110.36 11.368V19.88C110.36 20.0853 110.285 20.2533 110.136 20.384C110.005 20.5147 109.846 20.58 109.66 20.58H106.412C106.206 20.58 106.038 20.5147 105.908 20.384C105.777 20.2533 105.712 20.0853 105.712 19.88V18.9C105.469 19.2547 105.142 19.5813 104.732 19.88C104.321 20.1787 103.836 20.412 103.276 20.58C102.734 20.7667 102.1 20.86 101.372 20.86ZM102.688 17.668C103.229 17.668 103.714 17.556 104.144 17.332C104.592 17.0893 104.937 16.7253 105.18 16.24C105.441 15.736 105.572 15.1107 105.572 14.364V13.972L103.192 14.392C102.314 14.5413 101.67 14.7747 101.26 15.092C100.868 15.3907 100.672 15.7453 100.672 16.156C100.672 16.4733 100.765 16.744 100.952 16.968C101.138 17.192 101.381 17.3693 101.68 17.5C101.978 17.612 102.314 17.668 102.688 17.668ZM118.134 20.58C117.854 20.58 117.648 20.5147 117.518 20.384C117.387 20.2347 117.275 20.0667 117.182 19.88L111.89 6.888C111.852 6.81333 111.834 6.72933 111.834 6.636C111.834 6.468 111.89 6.328 112.002 6.216C112.132 6.08533 112.291 6.02 112.478 6.02H115.642C115.884 6.02 116.071 6.08533 116.202 6.216C116.332 6.34667 116.416 6.47733 116.454 6.608L119.618 15.204L122.81 6.608C122.847 6.47733 122.931 6.34667 123.062 6.216C123.192 6.08533 123.379 6.02 123.622 6.02H126.786C126.954 6.02 127.103 6.08533 127.234 6.216C127.364 6.328 127.43 6.468 127.43 6.636C127.43 6.72933 127.411 6.81333 127.374 6.888L122.082 19.88C122.007 20.0667 121.895 20.2347 121.746 20.384C121.615 20.5147 121.4 20.58 121.102 20.58H118.134ZM135.624 20.86C133.421 20.86 131.666 20.2627 130.36 19.068C129.053 17.8733 128.372 16.1 128.316 13.748C128.316 13.6173 128.316 13.4493 128.316 13.244C128.316 13.0387 128.316 12.88 128.316 12.768C128.372 11.2933 128.698 10.0333 129.296 8.988C129.912 7.924 130.752 7.12133 131.816 6.58C132.898 6.02 134.158 5.74 135.596 5.74C137.238 5.74 138.592 6.06667 139.656 6.72C140.738 7.37333 141.55 8.26 142.092 9.38C142.633 10.5 142.904 11.7787 142.904 13.216V13.888C142.904 14.0933 142.829 14.2613 142.68 14.392C142.549 14.5227 142.39 14.588 142.204 14.588H133.244C133.244 14.6067 133.244 14.6347 133.244 14.672C133.244 14.7093 133.244 14.7467 133.244 14.784C133.262 15.3253 133.356 15.82 133.524 16.268C133.692 16.716 133.953 17.0707 134.308 17.332C134.662 17.5933 135.092 17.724 135.596 17.724C135.969 17.724 136.277 17.668 136.52 17.556C136.781 17.4253 136.996 17.2853 137.164 17.136C137.332 16.968 137.462 16.828 137.556 16.716C137.724 16.5293 137.854 16.4173 137.948 16.38C138.06 16.324 138.228 16.296 138.452 16.296H141.924C142.11 16.296 142.26 16.352 142.372 16.464C142.502 16.5573 142.558 16.6973 142.54 16.884C142.521 17.2013 142.362 17.584 142.064 18.032C141.765 18.48 141.326 18.928 140.748 19.376C140.188 19.8053 139.478 20.16 138.62 20.44C137.761 20.72 136.762 20.86 135.624 20.86ZM133.244 11.816H137.976V11.76C137.976 11.1627 137.882 10.64 137.696 10.192C137.528 9.744 137.257 9.39867 136.884 9.156C136.529 8.91333 136.1 8.792 135.596 8.792C135.092 8.792 134.662 8.91333 134.308 9.156C133.972 9.39867 133.71 9.744 133.524 10.192C133.337 10.64 133.244 11.1627 133.244 11.76V11.816ZM145.933 20.58C145.728 20.58 145.56 20.5147 145.429 20.384C145.298 20.2533 145.233 20.0853 145.233 19.88V16.324C145.233 16.1373 145.298 15.9787 145.429 15.848C145.56 15.6987 145.728 15.624 145.933 15.624H149.461C149.666 15.624 149.834 15.6987 149.965 15.848C150.114 15.9787 150.189 16.1373 150.189 16.324V19.88C150.189 20.0853 150.114 20.2533 149.965 20.384C149.834 20.5147 149.666 20.58 149.461 20.58H145.933ZM153.875 20.58C153.669 20.58 153.501 20.5147 153.371 20.384C153.24 20.2533 153.175 20.0853 153.175 19.88V6.72C153.175 6.51467 153.24 6.34667 153.371 6.216C153.501 6.08533 153.669 6.02 153.875 6.02H157.179C157.365 6.02 157.524 6.08533 157.655 6.216C157.804 6.34667 157.879 6.51467 157.879 6.72V19.88C157.879 20.0853 157.804 20.2533 157.655 20.384C157.524 20.5147 157.365 20.58 157.179 20.58H153.875ZM153.847 3.92C153.641 3.92 153.473 3.85467 153.343 3.724C153.212 3.59333 153.147 3.42533 153.147 3.22V0.728C153.147 0.522667 153.212 0.354667 153.343 0.224C153.473 0.0746677 153.641 1.43051e-06 153.847 1.43051e-06H157.179C157.384 1.43051e-06 157.552 0.0746677 157.683 0.224C157.832 0.354667 157.907 0.522667 157.907 0.728V3.22C157.907 3.42533 157.832 3.59333 157.683 3.724C157.552 3.85467 157.384 3.92 157.179 3.92H153.847ZM168.028 20.86C166.46 20.86 165.135 20.608 164.052 20.104C162.988 19.6 162.167 18.8813 161.588 17.948C161.028 16.996 160.711 15.8667 160.636 14.56C160.617 14.1867 160.608 13.7667 160.608 13.3C160.608 12.8147 160.617 12.3947 160.636 12.04C160.711 10.7147 161.047 9.58533 161.644 8.652C162.241 7.71867 163.072 7 164.136 6.496C165.219 5.992 166.516 5.74 168.028 5.74C169.559 5.74 170.856 5.992 171.92 6.496C173.003 7 173.843 7.71867 174.44 8.652C175.037 9.58533 175.373 10.7147 175.448 12.04C175.467 12.3947 175.476 12.8147 175.476 13.3C175.476 13.7667 175.467 14.1867 175.448 14.56C175.373 15.8667 175.047 16.996 174.468 17.948C173.908 18.8813 173.087 19.6 172.004 20.104C170.94 20.608 169.615 20.86 168.028 20.86ZM168.028 17.444C168.868 17.444 169.475 17.192 169.848 16.688C170.24 16.184 170.464 15.428 170.52 14.42C170.539 14.14 170.548 13.7667 170.548 13.3C170.548 12.8333 170.539 12.46 170.52 12.18C170.464 11.1907 170.24 10.444 169.848 9.94C169.475 9.41733 168.868 9.156 168.028 9.156C167.207 9.156 166.6 9.41733 166.208 9.94C165.816 10.444 165.601 11.1907 165.564 12.18C165.545 12.46 165.536 12.8333 165.536 13.3C165.536 13.7667 165.545 14.14 165.564 14.42C165.601 15.428 165.816 16.184 166.208 16.688C166.6 17.192 167.207 17.444 168.028 17.444Z" fill="#161C2D"/>
</svg>
